# xmcd
#
# Track frame offsets: 
#        160
#        16177
#        33885
#        46395
#        63737
#        83307
#        100780
#        118685
#        131360
#        146465
#        164560
#        188422
#
# Disc length: 2722 seconds
#
# Revision: 1
# Processed by: cddbd v1.5.2PL0 Copyright (c) Steve Scherf et al.
# Submitted via: ExactAudioCopy v1.3
#
DISCID=8f0aa00c
DTITLE=Гамбринус - Одесские песни из ресторана
DYEAR=1995
DGENRE=Chanson
TTITLE0=Одесский порт
TTITLE1=Опять иду по лестнице
TTITLE2=Одесса с морем рядом
TTITLE3=Одесса - Черного моря принцеса
TTITLE4=Дерибасовская улица
TTITLE5=Дождь идет в Одессе
TTITLE6=Мясоедовская
TTITLE7=Неапольский порт
TTITLE8=Жил на свете Хаим
TTITLE9=Ах, Одесса!
TTITLE10=А если нас заденут за живое
TTITLE11=У Черного моря
EXTD=
EXTT0=
EXTT1=
EXTT2=
EXTT3=
EXTT4=
EXTT5=
EXTT6=
EXTT7=
EXTT8=
EXTT9=
EXTT10=
EXTT11=
PLAYORDER=
